<?xml version="1.0" encoding="UTF-8" standalone="no"?>
<!-- Created with Inkscape (http://www.inkscape.org/) -->

<svg
   width="8.4335938mm"
   height="8.4372864mm"
   viewBox="0 0 8.4335938 8.4372864"
   version="1.1"
   id="svg5"
   xml:space="preserve"
   inkscape:version="1.2.2 (1:1.2.2+202305151914+b0a8486541)"
   sodipodi:docname="favicon.svg"
   xmlns:inkscape="http://www.inkscape.org/namespaces/inkscape"
   xmlns:sodipodi="http://sodipodi.sourceforge.net/DTD/sodipodi-0.dtd"
   xmlns="http://www.w3.org/2000/svg"
   xmlns:svg="http://www.w3.org/2000/svg"><sodipodi:namedview
     id="namedview7"
     pagecolor="#ffffff"
     bordercolor="#000000"
     borderopacity="0.25"
     inkscape:showpageshadow="2"
     inkscape:pageopacity="0.0"
     inkscape:pagecheckerboard="0"
     inkscape:deskcolor="#d1d1d1"
     inkscape:document-units="mm"
     showgrid="false"
     inkscape:zoom="21.60853"
     inkscape:cx="-199.48141"
     inkscape:cy="1108.7983"
     inkscape:window-width="1850"
     inkscape:window-height="1016"
     inkscape:window-x="70"
     inkscape:window-y="27"
     inkscape:window-maximized="1"
     inkscape:current-layer="layer1" /><defs
     id="defs2" /><g
     inkscape:label="Layer 1"
     inkscape:groupmode="layer"
     id="layer1"
     transform="translate(58.930654,-289.3969)"><path
       style="opacity:1;fill:#ffffff;fill-opacity:1;stroke-width:0.0399554"
       d="m -206.90802,1098.7953 c -1.86043,0.016 -3.64813,1.2047 -4.39205,2.9087 -0.79186,1.6448 -0.52348,3.7238 0.6285,5.1342 0.38566,0.4879 0.8697,0.8954 1.40285,1.2137 0.008,3.8858 -0.0164,7.7717 0.0144,11.6574 0.0147,0.6189 -0.01,1.2943 0.38196,1.8162 0.56624,0.8544 1.67687,1.327 2.67905,1.0585 0.78312,-0.1869 1.42984,-0.7854 1.72181,-1.5306 0.22643,-0.4613 0.0981,-0.9892 0.13288,-1.4828 0.006,-3.8387 0.011,-7.6773 0.0165,-11.516 1.48825,-0.856 2.4923,-2.5157 2.48655,-4.2419 0.0411,-1.69 -0.86355,-3.3567 -2.29852,-4.2488 -0.82235,-0.5243 -1.80001,-0.7893 -2.77395,-0.7686 z"
       id="path7205"
       transform="scale(0.26458333)" /><path
       opacity="1"
       fill="#1e3050"
       d="m -58.930651,293.61555 a 4.2167969,4.2167969 0 1 0 8.433593,0 4.2167969,4.2167969 0 1 0 -8.433593,0 z m 5.270996,-1.5813 c 0,0.44309 -0.271785,0.82194 -0.658875,0.97677 v 3.3718 c 0,0.21908 -0.176248,0.39533 -0.395323,0.39533 -0.219077,0 -0.395326,-0.17631 -0.395326,-0.39533 v -3.3718 c -0.387088,-0.15638 -0.658874,-0.53532 -0.658874,-0.97677 0,-0.58146 0.472742,-1.0542 1.0542,-1.0542 0.581455,0 1.054198,0.47274 1.054198,1.0542 z"
       id="path132"
       style="fill:#111111;fill-opacity:1;stroke-width:0.0164719"
       inkscape:export-filename="favicon.png"
       inkscape:export-xdpi="96"
       inkscape:export-ydpi="96" /></g></svg>
